<svg width="186" height="202" viewBox="0 0 186 202" fill="none" xmlns="http://www.w3.org/2000/svg">
<path d="M191.462 158.313L195.022 164L186.985 169.031L183.424 163.344L182.1 164.173L189.922 176.667L191.246 175.838L187.744 170.244L195.781 165.212L199.283 170.807L200.607 169.978L192.786 157.484L191.462 158.313Z" fill="black"/>
<path d="M171.307 170.202C167.504 171.711 165.967 174.759 167.46 178.521L170.649 186.558L172.1 185.982L168.936 178.007C167.695 174.878 168.685 172.899 171.875 171.634C175.065 170.368 177.142 171.13 178.384 174.258L181.548 182.234L183 181.657L179.811 173.621C178.318 169.858 175.111 168.693 171.307 170.202Z" fill="black"/>
<path d="M154.76 176.383C150.763 177.257 149.445 179.571 149.896 181.635C150.384 183.87 152.279 184.604 154.966 184.535L158.128 184.474C160.354 184.461 161.408 184.748 161.765 186.382C162.108 187.951 160.997 189.049 158.139 189.674C155.001 190.36 153.467 189.524 153.011 187.439L152.955 187.181L151.407 187.52L151.435 187.649C152.009 190.271 154.284 192.025 158.346 191.138C162.472 190.236 163.717 187.892 163.289 185.936C162.768 183.55 160.682 182.97 158.24 183.031L155.062 183.118C152.861 183.148 151.767 182.779 151.415 181.168C151.058 179.534 152.195 178.452 155.075 177.823C158.45 177.085 159.983 177.921 160.434 179.984L160.495 180.264L162.043 179.925L162.015 179.796C161.413 177.045 158.995 175.457 154.76 176.383Z" fill="black"/>
<path d="M142.905 179.024L145.055 193.607L146.6 193.379L144.451 178.796L142.905 179.024Z" fill="black"/>
<path d="M136.068 180.608L133.972 184.887L125.879 184.668L124.017 180.282L122.257 180.235L128.545 195.15L130.722 195.209L137.784 180.654L136.068 180.608ZM130.616 191.795L129.773 193.687L129.641 193.683L128.879 191.748L126.478 186.093L133.296 186.277L130.616 191.795Z" fill="black"/>
<path d="M112.306 179.397C108.287 178.631 106.165 180.242 105.77 182.316C105.341 184.564 106.795 185.983 109.293 186.975L112.225 188.161C114.278 189.023 115.134 189.701 114.82 191.344C114.52 192.921 113.066 193.495 110.192 192.947C107.037 192.345 105.955 190.974 106.355 188.878L106.404 188.619L104.848 188.322L104.823 188.452C104.32 191.088 105.724 193.595 109.808 194.374C113.957 195.166 116.022 193.499 116.397 191.533C116.855 189.134 115.164 187.781 112.895 186.878L109.938 185.709C107.902 184.873 107.041 184.104 107.35 182.483C107.664 180.841 109.134 180.293 112.03 180.845C115.423 181.492 116.505 182.863 116.109 184.938L116.056 185.219L117.612 185.516L117.637 185.386C118.164 182.62 116.563 180.209 112.306 179.397Z" fill="black"/>
<path d="M95.3316 175.899L90.7964 188.412L85.1084 186.351L84.6212 187.695L97.4863 192.358L97.9735 191.014L92.2649 188.945L96.8001 176.431L95.3316 175.899Z" fill="black"/>
<path d="M81.1288 170.191C77.5531 168.201 75.0332 169.065 74.0062 170.91C72.8937 172.91 73.8284 174.714 75.8892 176.44L78.3003 178.486C79.9788 179.949 80.5787 180.862 79.7657 182.323C78.9848 183.726 77.4248 183.815 74.868 182.392C72.0613 180.83 71.4641 179.189 72.5017 177.324L72.6301 177.094L71.246 176.323L71.1818 176.439C69.8767 178.784 70.4218 181.605 74.0552 183.627C77.7462 185.681 80.2298 184.746 81.2033 182.997C82.3907 180.863 81.2103 179.048 79.3395 177.478L76.8985 175.44C75.2285 174.008 74.6522 173.007 75.4545 171.565C76.2675 170.104 77.836 170.046 80.412 171.479C83.4302 173.158 84.0274 174.8 83.0005 176.645L82.8614 176.895L84.2455 177.666L84.3097 177.55C85.679 175.09 84.9159 172.298 81.1288 170.191Z" fill="black"/>
<path d="M60.9173 157.618C57.861 154.734 54.9642 154.663 52.7297 157.031L51.3256 158.519L49.5014 156.798L48.5805 157.774L50.4047 159.495L48.6836 161.319L49.8037 162.376L51.5248 160.552L55.3333 164.145C56.9335 165.655 57.3482 167.075 56.1404 168.355C54.9326 169.635 53.7312 169.53 51.987 167.884L49.3947 165.439L48.3983 166.495L50.8786 168.835C53.1828 171.009 55.4498 171.363 57.1256 169.587C58.2277 168.419 58.3993 166.826 57.2816 165.318L57.3873 165.206C59.1481 166.353 60.9332 166.192 62.3222 164.72C64.2094 162.72 63.5896 160.139 60.9173 157.618ZM59.904 158.628C62.1922 160.787 62.4693 162.288 61.0955 163.744C59.7216 165.2 58.1425 164.951 56.5263 163.426L52.4458 159.576L53.8951 158.04C55.6918 156.136 57.3917 156.257 59.904 158.628Z" fill="black"/>
<path d="M44.2194 141.812L32.6237 150.911L33.588 152.14L45.1837 143.04L44.2194 141.812Z" fill="black"/>
<path d="M39.6535 136.964L30.9305 141.693L28.7853 142.905L28.7329 142.809L30.0378 139.999L35.0826 128.532L34.2649 127.023L21.3061 134.047L22.0505 135.42L30.8895 130.629L32.9961 129.437L33.059 129.553L31.7419 132.294L26.6214 143.853L27.4391 145.362L40.3979 138.338L39.6535 136.964Z" fill="black"/>
<path d="M28.677 115.947C27.3119 111.741 23.7223 109.946 19.4326 111.338C15.1428 112.73 13.2918 116.291 14.6568 120.498L16.6331 126.587L30.6532 122.037L28.677 115.947ZM16.017 120.056C14.8625 116.499 16.1335 114.143 19.9419 112.907C23.7504 111.671 26.1623 112.832 27.3168 116.389L28.8041 120.972L17.5043 124.639L16.017 120.056Z" fill="black"/>
<path d="M23.5329 98.3941C22.9828 94.3392 20.3943 92.115 16.3831 92.6592L7.81556 93.8215L8.02554 95.3693L16.5277 94.2159C19.8631 93.7634 21.5455 95.2003 22.0069 98.6011C22.4683 102.002 21.2295 103.835 17.894 104.288L9.39189 105.441L9.60187 106.989L18.1694 105.827C22.1806 105.282 24.083 102.449 23.5329 98.3941Z" fill="black"/>
<path d="M21.4409 80.0499C21.5672 75.9599 19.6432 74.1176 17.5322 74.0524C15.2453 73.9818 14.0715 75.6403 13.4842 78.2635L12.7728 81.345C12.2438 83.5077 11.7081 84.4596 10.0369 84.408C8.43167 84.3584 7.63682 83.0132 7.72715 80.0886C7.82631 76.8781 9.01052 75.5941 11.1435 75.66L11.4074 75.6681L11.4563 74.0849L11.3243 74.0808C8.64162 73.9979 6.38562 75.7771 6.25725 79.9331C6.12685 84.1551 8.09691 85.9328 10.098 85.9946C12.5388 86.07 13.6094 84.1881 14.1452 81.8055L14.8354 78.7014C15.3417 76.56 15.966 75.5888 17.6152 75.6397C19.2864 75.6914 20.0586 77.0578 19.9676 80.0044C19.861 83.4568 18.6767 84.7408 16.5658 84.6756L16.2799 84.6668L16.231 86.2501L16.3629 86.2541C19.1776 86.3411 21.3071 84.3819 21.4409 80.0499Z" fill="black"/>
<path d="M22.1826 62.8415L9.10832 60.3477L10.2418 54.4048L8.83717 54.1369L6.27334 67.5786L7.67802 67.8465L8.81567 61.882L21.89 64.3758L22.1826 62.8415Z" fill="black"/>
<path d="M24.083 51.1567L18.4234 49.0815L19.5141 46.1071C20.1882 44.2688 20.949 43.7276 22.3632 43.4495L27.2716 42.4609L27.8926 40.7671L22.704 41.817C21.7242 41.9967 20.9359 42.2935 20.3548 43.1114L20.2515 43.0735C21.1287 40.4896 20.3115 38.245 17.9774 37.3892C15.4369 36.4576 13.2508 37.8821 12.1905 40.7738L9.70624 47.5487L23.5452 52.6232L24.083 51.1567ZM11.5866 46.5745L13.5255 41.2868C14.3283 39.0973 15.62 38.2587 17.5822 38.9783C19.5445 39.6978 19.9878 41.1726 19.185 43.362L17.2461 48.6497L11.5866 46.5745Z" fill="black"/>
<path d="M31.9209 31.1375L27.355 28.5746L22.2224 18.3017L21.2856 19.9708L24.5523 26.4213L25.544 28.3402L25.4794 28.4553L23.314 28.6275L16.0953 29.2177L15.1584 30.8868L26.5797 29.9559L31.1456 32.5188L31.9209 31.1375Z" fill="black"/>
<path d="M42.0932 14.0361L38.6089 10.7725L42.1732 6.96711C44.3539 4.6389 44.5552 1.75285 42.2431 -0.412826C39.947 -2.56346 37.0803 -2.17395 34.8995 0.154262L30.2674 5.09971L41.0254 15.1761L42.0932 14.0361ZM35.853 1.22816C37.6276 -0.666522 39.3619 -0.941161 41.1602 0.743252C42.9907 2.45775 42.8139 4.19121 41.0393 6.08589L37.5652 9.79498L32.3789 4.93725L35.853 1.22816Z" fill="black"/>
<path d="M54.0244 1.84568L50.3203 -2.90999L52.8196 -4.85667C54.3643 -6.05983 55.2962 -6.11642 56.6434 -5.6041L61.3314 -3.84566L62.7547 -4.95419L57.7964 -6.80892C56.87 -7.17489 56.0441 -7.34026 55.1181 -6.95372L55.0506 -7.0405C57.1622 -8.76888 57.6565 -11.1059 56.1289 -13.0672C54.4661 -15.202 51.8574 -15.15 49.4275 -13.2574L43.7346 -8.82332L52.7921 2.80551L54.0244 1.84568ZM45.8456 -8.65497L50.2888 -12.1157C52.1286 -13.5487 53.6684 -13.5768 54.9526 -11.9279C56.2369 -10.2791 55.8327 -8.79305 53.993 -7.36007L49.5497 -3.8993L45.8456 -8.65497Z" fill="black"/>
</svg>
