<svg width="38" height="38" viewBox="0 0 38 38" fill="none" xmlns="http://www.w3.org/2000/svg">
<circle cx="18.6842" cy="18.6843" r="11.8421" fill="black" fill-opacity="0.9"/>
<path fill-rule="evenodd" clip-rule="evenodd" d="M0 18.6842C0 8.36521 8.36521 0 18.6842 0C29.0032 0 37.3684 8.36521 37.3684 18.6842C37.3684 29.0032 29.0032 37.3684 18.6842 37.3684C8.36521 37.3684 0 29.0032 0 18.6842ZM18.6842 9.3421C23.8224 9.3421 28.0263 13.5461 28.0263 18.6842C28.0263 23.3553 24.6398 27.3257 19.9688 28.0263V21.3701H22.1875L22.6546 18.6842H20.0855V16.9326C20.0855 16.2319 20.4359 15.5312 21.6036 15.5312H22.7714V13.1957C22.7714 13.1957 21.7204 12.9622 20.6694 12.9622C18.5674 12.9622 17.1661 14.2467 17.1661 16.5822V18.6842H14.8306V21.3701H17.1661V27.9095C12.7286 27.2089 9.3421 23.3553 9.3421 18.6842C9.3421 13.5461 13.5461 9.3421 18.6842 9.3421Z" fill="#F7F7F7"/>
</svg>
