<svg width="39" height="38" viewBox="0 0 39 38" fill="none" xmlns="http://www.w3.org/2000/svg">
<circle cx="19.4737" cy="18.6842" r="13.4211" fill="black" fill-opacity="0.9"/>
<path d="M19.4736 21.9539C17.722 21.9539 16.2039 20.5526 16.2039 18.6842C16.2039 16.9326 17.6052 15.4145 19.4736 15.4145C21.2253 15.4145 22.7434 16.8158 22.7434 18.6842C22.7434 20.4359 21.2253 21.9539 19.4736 21.9539Z" fill="#F7F7F7"/>
<path fill-rule="evenodd" clip-rule="evenodd" d="M23.444 10.7434H15.5032C14.569 10.8602 14.1019 10.977 13.7516 11.0937C13.2845 11.2105 12.9342 11.4441 12.5838 11.7944C12.3066 12.0716 12.1756 12.3488 12.0173 12.6839C11.9756 12.7722 11.9319 12.8648 11.8832 12.9622C11.8651 13.0164 11.8443 13.0734 11.8219 13.1344C11.6997 13.4682 11.5328 13.9241 11.5328 14.7138V22.6546C11.6496 23.5888 11.7664 24.0559 11.8832 24.4062C12 24.8734 12.2335 25.2237 12.5838 25.574C12.861 25.8512 13.1383 25.9822 13.4733 26.1405C13.5617 26.1823 13.6541 26.2259 13.7516 26.2747C13.8058 26.2927 13.8628 26.3136 13.9239 26.3359C14.2576 26.4581 14.7136 26.625 15.5032 26.625H23.444C24.3782 26.5082 24.8453 26.3914 25.1957 26.2747C25.6628 26.1579 26.0131 25.9243 26.3634 25.574C26.6406 25.2968 26.7716 25.0196 26.9299 24.6845C26.9717 24.5962 27.0154 24.5037 27.0641 24.4062C27.0822 24.3521 27.103 24.2951 27.1254 24.234C27.2475 23.9002 27.4144 23.4443 27.4144 22.6546V14.7138C27.2976 13.7796 27.1809 13.3125 27.0641 12.9622C26.9473 12.4951 26.7138 12.1447 26.3634 11.7944C26.0862 11.5172 25.809 11.3862 25.4739 11.2279C25.3857 11.1862 25.293 11.1424 25.1957 11.0937C25.1415 11.0757 25.0845 11.0548 25.0234 11.0325C24.6896 10.9103 24.2337 10.7434 23.444 10.7434ZM19.4736 13.6628C16.671 13.6628 14.4523 15.8816 14.4523 18.6842C14.4523 21.4868 16.671 23.7056 19.4736 23.7056C22.2763 23.7056 24.495 21.4868 24.495 18.6842C24.495 15.8816 22.2763 13.6628 19.4736 13.6628ZM25.7796 13.546C25.7796 14.191 25.2567 14.7138 24.6118 14.7138C23.9669 14.7138 23.444 14.191 23.444 13.546C23.444 12.9011 23.9669 12.3783 24.6118 12.3783C25.2567 12.3783 25.7796 12.9011 25.7796 13.546Z" fill="#F7F7F7"/>
<path fill-rule="evenodd" clip-rule="evenodd" d="M0.789429 18.6842C0.789429 8.36521 9.15464 0 19.4736 0C29.7926 0 38.1578 8.36521 38.1578 18.6842C38.1578 29.0032 29.7926 37.3684 19.4736 37.3684C9.15464 37.3684 0.789429 29.0032 0.789429 18.6842ZM15.5032 8.99177H23.444C24.495 9.10855 25.1957 9.22533 25.7796 9.45888C26.4802 9.80921 26.9473 10.0428 27.5312 10.6266C28.1151 11.2105 28.4654 11.7944 28.699 12.3783C28.9325 12.9622 29.1661 13.6628 29.1661 14.7138V22.6546C29.0493 23.7056 28.9325 24.4062 28.699 24.9901C28.3486 25.6908 28.1151 26.1579 27.5312 26.7418C26.9473 27.3257 26.3634 27.676 25.7796 27.9095C25.1957 28.1431 24.495 28.3766 23.444 28.3766H15.5032C14.4523 28.2599 13.7516 28.1431 13.1677 27.9095C12.4671 27.5592 12 27.3257 11.4161 26.7418C10.8322 26.1579 10.4819 25.574 10.2483 24.9901C10.0148 24.4062 9.7812 23.7056 9.7812 22.6546V14.7138C9.89798 13.6628 10.0148 12.9622 10.2483 12.3783C10.5986 11.6776 10.8322 11.2105 11.4161 10.6266C12 10.0428 12.5838 9.69243 13.1677 9.45888C13.7516 9.22533 14.4523 8.99177 15.5032 8.99177Z" fill="#F7F7F7"/>
</svg>
