<svg width="39" height="38" viewBox="0 0 39 38" fill="none" xmlns="http://www.w3.org/2000/svg">
<circle cx="19.1622" cy="19.6272" r="15.8816" fill="#F7F7F7"/>
<path fill-rule="evenodd" clip-rule="evenodd" d="M13.9583 10.9375C12.756 10.9375 11.7812 11.8609 11.7812 13C11.7812 14.1391 12.756 15.0625 13.9583 15.0625C15.1607 15.0625 16.1354 14.1391 16.1354 13C16.1354 11.8609 15.1607 10.9375 13.9583 10.9375ZM12.9688 13C12.9688 12.4822 13.4118 12.0625 13.9583 12.0625C14.5049 12.0625 14.9479 12.4822 14.9479 13C14.9479 13.5178 14.5049 13.9375 13.9583 13.9375C13.4118 13.9375 12.9688 13.5178 12.9688 13Z" fill="black"/>
<path fill-rule="evenodd" clip-rule="evenodd" d="M11.7812 16C11.7812 15.6893 12.0471 15.4375 12.375 15.4375H15.5417C15.8696 15.4375 16.1354 15.6893 16.1354 16V25.75C16.1354 26.0607 15.8696 26.3125 15.5417 26.3125H12.375C12.0471 26.3125 11.7812 26.0607 11.7812 25.75V16ZM12.9688 16.5625V25.1875H14.9479V16.5625H12.9688Z" fill="black"/>
<path fill-rule="evenodd" clip-rule="evenodd" d="M17.3229 16C17.3229 15.6893 17.5887 15.4375 17.9167 15.4375H21.0833C21.4113 15.4375 21.6771 15.6893 21.6771 16V16.3255L22.0217 16.1856C22.6141 15.9451 23.2477 15.7942 23.8884 15.739C26.0852 15.5498 28.0104 17.1853 28.0104 19.2852V25.75C28.0104 26.0607 27.7446 26.3125 27.4167 26.3125H24.25C23.9221 26.3125 23.6562 26.0607 23.6562 25.75V20.5C23.6562 20.2514 23.552 20.0129 23.3664 19.8371C23.1808 19.6613 22.9291 19.5625 22.6667 19.5625C22.4042 19.5625 22.1525 19.6613 21.9669 19.8371C21.7813 20.0129 21.6771 20.2514 21.6771 20.5V25.75C21.6771 26.0607 21.4113 26.3125 21.0833 26.3125H17.9167C17.5887 26.3125 17.3229 26.0607 17.3229 25.75V16ZM18.5104 16.5625V25.1875H20.4896V20.5C20.4896 19.953 20.719 19.4284 21.1272 19.0416C21.5355 18.6548 22.0893 18.4375 22.6667 18.4375C23.2441 18.4375 23.7978 18.6548 24.2061 19.0416C24.6144 19.4284 24.8437 19.953 24.8437 20.5V25.1875H26.8229V19.2852C26.8229 17.8569 25.508 16.7292 23.9959 16.8594C23.4781 16.904 22.9663 17.0261 22.4895 17.2196L21.3172 17.6956C21.1338 17.7701 20.9231 17.7523 20.7565 17.6482C20.5899 17.5441 20.4896 17.3677 20.4896 17.1786V16.5625H18.5104Z" fill="black"/>
</svg>
