<svg width="39" height="38" viewBox="0 0 39 38" fill="none" xmlns="http://www.w3.org/2000/svg">
<circle cx="19.1622" cy="19.6272" r="15.8816" fill="black" fill-opacity="0.9"/>
<path fill-rule="evenodd" clip-rule="evenodd" d="M19.4736 0.631592C9.15464 0.631592 0.789429 8.9968 0.789429 19.3158C0.789429 29.6348 9.15464 38 19.4736 38C29.7926 38 38.1578 29.6348 38.1578 19.3158C38.1578 8.9968 29.7926 0.631592 19.4736 0.631592ZM23.115 9.9737C23.115 10.2513 23.1409 10.5248 23.1887 10.7894C23.4185 12.0127 24.1424 13.0625 25.148 13.7175C25.8502 14.1773 26.6824 14.442 27.5796 14.442L27.5795 15.1577V17.6521C25.915 17.6521 24.372 17.1185 23.1149 16.2162V22.745C23.1149 26.003 20.4623 28.6579 17.2071 28.6579C15.9501 28.6579 14.7798 28.2587 13.8218 27.5863C12.2962 26.5148 11.2993 24.7449 11.2993 22.745C11.2993 19.4828 13.9476 16.8323 17.2028 16.8365C17.4759 16.8365 17.7403 16.8582 18.0004 16.893V17.6521L17.9908 17.6567L18.0003 17.6564V20.1725C17.7489 20.0944 17.4802 20.0467 17.2028 20.0467C15.7161 20.0467 14.5068 21.2571 14.5068 22.745C14.5068 23.7819 15.0962 24.6798 15.9545 25.1354C15.9625 25.1463 15.9706 25.1573 15.9788 25.1681L15.9932 25.1871C15.9833 25.168 15.9719 25.1493 15.9588 25.131C16.3359 25.3306 16.7607 25.4433 17.2115 25.4433C18.6635 25.4433 19.8512 24.2851 19.9031 22.8449L19.9075 9.9737H23.115Z" fill="#F7F7F7"/>
</svg>
