<svg width="39" height="38" viewBox="0 0 39 38" fill="none" xmlns="http://www.w3.org/2000/svg">
<circle cx="19.8421" cy="18.421" r="12.6316" fill="black" fill-opacity="0.9"/>
<path fill-rule="evenodd" clip-rule="evenodd" d="M0.894775 18.6842C0.894775 8.36521 9.25998 0 19.579 0C29.898 0 38.2632 8.36521 38.2632 18.6842C38.2632 29.0032 29.898 37.3684 19.579 37.3684C9.25998 37.3684 0.894775 29.0032 0.894775 18.6842ZM26.7023 13.4293C27.5198 13.3125 28.2204 13.1957 28.9211 12.8454C28.454 13.6628 27.7533 14.3635 26.9359 14.8306C27.1694 20.3191 23.1991 26.2747 16.0757 26.2747C13.9737 26.2747 11.9885 25.574 10.2369 24.523C12.2221 24.7566 14.3241 24.1727 15.7254 23.1217C13.9737 23.1217 12.5724 21.9539 12.1053 20.4359C12.6892 20.5526 13.2731 20.4359 13.8569 20.3191C12.1053 19.852 10.8208 18.2171 10.8208 16.4655C11.4046 16.699 11.9885 16.9326 12.5724 16.9326C10.9375 15.7648 10.3537 13.5461 11.4046 11.7944C13.3898 14.1299 16.1925 15.648 19.3454 15.7648C18.7616 13.4293 20.63 11.0938 23.0823 11.0938C24.1333 11.0938 25.1842 11.5609 25.8849 12.2615C26.8191 12.028 27.6366 11.7944 28.3372 11.3273C28.1037 12.2615 27.5198 12.9622 26.7023 13.4293Z" fill="#F7F7F7"/>
</svg>
